<svg width="34" height="40" viewBox="0 0 34 40" fill="none" xmlns="http://www.w3.org/2000/svg">
<path d="M23.6992 6.1625C23.6992 7.19625 24.5405 8.0375 25.5742 8.0375H31.7367V7.9375C31.7367 7.1125 31.4117 6.325 30.8242 5.7375L26.0117 0.925C25.4117 0.325 24.6242 0 23.7867 0H23.6992V6.1625Z" fill="#00303F"/>
<path d="M21.2775 34.315C19.6262 32.665 18.7162 30.4688 18.7162 28.135C18.7162 25.8 19.6262 23.6038 21.2775 21.9538C22.9275 20.3025 25.1237 19.3925 27.4587 19.3925C28.9825 19.3925 30.445 19.7875 31.7375 20.515V9.9125H25.575C23.5125 9.9125 21.825 8.2375 21.825 6.1625V0H5C2.2375 0 0 2.2375 0 5V30C0 32.7625 2.2375 35 5 35H22.0588C21.7887 34.7863 21.525 34.5612 21.2775 34.315Z" fill="#00303F"/>
<g clip-path="url(#clip0_2_21963)">
<path d="M26.8736 32.304C27.9616 32.3054 29.0143 31.9227 29.8409 31.2256V40.0002L26.8736 38.4793L23.9062 40.0002V31.2256C24.7329 31.9227 25.7856 32.3054 26.8736 32.304Z" fill="#00303F"/>
<path d="M30.2472 27.8084C30.2472 29.6396 28.7409 31.1229 26.8814 31.1229C25.7354 31.1229 24.6686 30.5496 24.0497 29.6006C23.6951 29.0677 23.5071 28.4443 23.5085 27.807C23.4704 25.9745 24.9484 24.4592 26.8093 24.4216C28.6703 24.384 30.209 25.8395 30.2472 27.6721C30.2472 27.718 30.2472 27.7625 30.2472 27.8084Z" fill="#00303F"/>
<path d="M32.5212 29.3219C32.6625 28.7917 33.7759 28.0292 33.7491 27.4768C33.7222 26.9244 32.5438 26.2787 32.3502 25.7653C32.1566 25.2518 32.5876 23.9953 32.2371 23.5654C31.8867 23.1354 30.5528 23.2871 30.0837 22.9879C29.6146 22.6887 29.2119 21.4406 28.6848 21.2708C28.1578 21.1011 27.1503 22.0236 26.5908 22.0501C26.0312 22.0765 24.9488 21.2555 24.4373 21.4726C23.9258 21.6897 23.646 22.9726 23.2094 23.3177C22.7728 23.6628 21.4276 23.6363 21.121 24.0969C20.8144 24.5575 21.3739 25.7667 21.2284 26.2968C21.0828 26.827 19.9736 27.5895 20.0005 28.1363C20.0273 28.6832 21.2058 29.3399 21.405 29.8534C21.6042 30.3668 21.1634 31.6233 21.5124 32.0533C21.8614 32.4833 23.208 32.3316 23.6658 32.6308C23.7096 32.66 23.7492 32.6934 23.7845 32.7309C24.2084 33.1484 24.5758 34.2101 25.0704 34.3478C25.6087 34.487 26.5992 33.5895 27.1588 33.563C27.7183 33.5366 28.7951 34.3367 29.3179 34.1405C29.5821 34.0403 29.7813 33.6632 29.9636 33.2653C30.1459 32.8673 30.3239 32.4707 30.5401 32.301C30.9767 31.9559 32.3219 31.9782 32.6285 31.5162C32.9352 31.0542 32.377 29.8534 32.5212 29.3219ZM29.6824 31.0361C27.8681 32.5556 25.1467 32.3399 23.6037 30.5547C22.0606 28.7694 22.2797 26.0881 24.0926 24.5686C25.9069 23.0491 28.6283 23.2648 30.1713 25.0501C30.8369 25.8195 31.2014 26.7977 31.2 27.8079C31.2 29.0519 30.6461 30.2319 29.6824 31.0361Z" fill="#00303F"/>
</g>
<defs>
<clipPath id="clip0_2_21963">
<rect width="13.75" height="18.75" fill="white" transform="translate(20 21.25)"/>
</clipPath>
</defs>
</svg>
