<svg width="120" height="61" viewBox="0 0 120 61" fill="none" xmlns="http://www.w3.org/2000/svg">
<path d="M82.9572 13.8467V30.0094L82.7505 30.1797L82.5437 30.35L82.3455 30.5288L82.1559 30.7076L81.975 30.8865L81.7941 31.0738L81.6217 31.2612L81.4494 31.4485V13.8467H63.3297V28.5617H61.8304V13.8467H43.7107V28.5872H42.2115V13.8467H24.0917V30.648L19.4648 45.8825H23.5317L25.5737 39.1381H26.1596L29.5371 45.8825H34.4483L31.1742 39.1381H38.6013L36.542 45.8825H40.9794L43.0128 39.1552H43.995V39.1381H45.3908H45.5028H53.8864L51.9219 45.8654H56.4023L58.3064 39.1381H60.3226L60.3743 45.8654H64.1309L68.4476 39.1381H71.2737L69.809 45.8654H74.2204L75.6593 39.1381H78.2097L78.1925 39.5213L78.2016 39.913L78.2188 40.2877L78.2532 40.6624L78.2791 40.8412L78.3049 41.02L78.3393 41.1989L78.3738 41.3777L78.4168 41.5565L78.4599 41.7268L78.5115 41.8971L78.5632 42.0675L78.6236 42.2378L78.6839 42.3996L78.7528 42.5614L78.8218 42.7146L78.8994 42.8764L78.9769 43.0297L79.0631 43.1745L79.1493 43.3278L79.2441 43.4725L79.3475 43.6088L79.4509 43.7536L79.5629 43.8813L79.6749 44.0175L79.787 44.1453L79.9162 44.273L80.0454 44.3922L80.2091 44.5285L80.3728 44.6647L80.5452 44.7925L80.7261 44.9117L80.9071 45.0309L81.088 45.1416L81.2775 45.2352L81.4757 45.3374L81.6653 45.4226L81.8634 45.5077L82.0616 45.5844L82.2684 45.661L82.4752 45.7292L82.682 45.7888L82.8888 45.8484L83.0955 45.8995L83.5091 45.9931L83.9313 46.0613L84.3449 46.1209L84.7585 46.172L85.1634 46.206L85.5598 46.2231L85.9475 46.2402H86.318L86.8177 46.2321L87.3175 46.224L87.8258 46.1985L88.3342 46.1729L88.8425 46.1303L89.3509 46.0877L89.8592 46.0366L90.3676 45.977L90.8845 45.9088L91.4015 45.8321L91.9185 45.747L92.4355 45.6618L92.9524 45.5682L93.4694 45.466L93.9864 45.3638L94.5119 45.2446L96.0456 39.1389H101.077V13.8475L82.9572 13.8467ZM25.7719 38.508L25.7977 38.4143L25.8581 38.508H25.7719ZM41.5566 29.4473L41.2982 30.3074L38.8856 38.227L38.7908 38.508H30.864L30.2522 37.2136L38.7908 28.5872H33.3024L26.6248 35.6978L28.7875 28.5872H24.7379V14.4854H41.5566L41.5566 29.4473ZM46.2352 36.1406L46.106 36.1487L45.9853 36.1568L45.8561 36.1649H45.7182H45.5373H45.3822L45.2357 36.1729H45.0979L44.0209 36.1649L44.5206 34.3425L44.7532 33.4398L45.3219 31.3195H45.5028H45.6924L45.8733 31.3114H46.0457H46.8814L47.3898 31.3195L47.855 31.3365L48.0618 31.3446L48.26 31.3617L48.4496 31.3872L48.6219 31.4128L48.777 31.4383L48.9235 31.481L49.0613 31.5236L49.1819 31.5747L49.2853 31.6258L49.3801 31.694L49.4663 31.7622L49.5352 31.8473L49.5782 31.9155L49.6127 31.9837L49.6471 32.0603L49.6729 32.1455L49.6902 32.2391L49.6993 32.3327V32.4349V32.5456L49.6902 32.6648L49.6821 32.784L49.6562 32.9203L49.6304 33.0565L49.5528 33.3461L49.458 33.6697L49.3632 33.9422L49.2598 34.2062L49.1478 34.4531L49.0272 34.683L48.9668 34.7852L48.9065 34.8874L48.8375 34.9896L48.7599 35.0832L48.6823 35.1768L48.6047 35.262L48.5185 35.3471L48.4323 35.4238L48.3375 35.492L48.2427 35.5686L48.1393 35.6282L48.0273 35.6964L47.9153 35.756L47.7947 35.8071L47.6741 35.8582L47.5448 35.9008L47.407 35.9519L47.2605 35.986L47.1054 36.02L46.9503 36.0541L46.778 36.0796L46.6057 36.1052L46.4247 36.1222L46.2352 36.1393L46.2352 36.1406ZM58.4874 38.508L60.2537 32.2916L60.3227 38.508H58.4874ZM61.1756 28.5617H56.9709L54.0759 38.508H49.6127L49.8195 38.4228L50.0263 38.3377L50.2245 38.2525L50.4227 38.1589L50.6122 38.0653L50.7932 37.9546L50.9741 37.8524L51.1464 37.7417L51.3187 37.6225L51.4824 37.5032L51.6375 37.384L51.7926 37.2478L51.9391 37.12L52.077 36.9753L52.2148 36.839L52.3441 36.6857L52.4733 36.541L52.5939 36.3792L52.7059 36.2259L52.818 36.0556L52.9213 35.8853L53.0162 35.715L53.111 35.5361L53.1971 35.3488L53.2833 35.1614L53.3609 34.9741L53.4298 34.7782L53.4988 34.5739L53.5504 34.3695L53.6108 34.1651L53.6538 33.9437L53.6969 33.7308L53.7573 33.3902L53.8089 33.0666L53.8434 32.76L53.8692 32.4705L53.8783 32.181L53.8692 31.917L53.8611 31.653L53.8266 31.406L53.7922 31.1761L53.7318 30.9462L53.6715 30.7333L53.5853 30.5289L53.4905 30.3331L53.3871 30.1372L53.2665 29.9584L53.1286 29.7881L53.0166 29.6689L52.9046 29.5496L52.784 29.4474L52.6547 29.3538L52.5168 29.2602L52.379 29.175L52.2325 29.0984L52.086 29.0302L51.931 28.962L51.7759 28.9109L51.6122 28.8598L51.4484 28.8087L51.2761 28.7661L51.1038 28.732L50.9315 28.698L50.7505 28.6725L50.38 28.6213L50.0095 28.5958L49.6304 28.5702L49.2427 28.5622H48.4673H47.7004H47.4592H47.0284H46.4942H45.8996H45.3224H44.8312H44.4866H44.3574V14.4858H61.1761L61.1756 28.5617ZM71.3944 38.508H68.8698L72.6954 32.547L71.3944 38.508ZM80.7946 28.8427L80.7855 32.2916L80.5701 32.5896L80.3719 32.8962L80.1737 33.2027L79.9928 33.5093L79.8205 33.8159L79.6481 34.1309L79.5017 34.4375L79.3552 34.7441L79.2173 35.0421L79.0967 35.3487L78.9761 35.6467L78.8727 35.9362L78.7779 36.2258L78.6917 36.5068L78.6141 36.7793L78.5451 37.0518L78.5021 37.2306L78.459 37.418L78.416 37.5968L78.3815 37.7841L78.3471 37.963L78.3213 38.1418L78.2955 38.3206L78.2782 38.508H75.8054L77.9164 28.5872L70.7994 28.5792L64.4321 38.5084H63.9668V14.4858H80.7941L80.7946 28.8427ZM90.4964 42.5699L90.1431 42.6295L89.7812 42.6806L89.4193 42.7317L89.0661 42.7744L88.7128 42.8084L88.3596 42.8339L88.0149 42.851H87.6703H87.4463L87.2222 42.8429L87.0068 42.8259L86.7914 42.8003L86.5846 42.7663L86.3865 42.7322L86.1883 42.6896L85.9987 42.6385L85.8178 42.5789L85.6369 42.5193L85.4645 42.4427L85.3008 42.366L85.1371 42.2724L84.982 42.1787L84.8355 42.0766L84.6977 41.9744L84.5598 41.8552L84.4392 41.7274L84.3186 41.5997L84.2066 41.4549L84.1032 41.3101L84.0084 41.1483L83.9222 40.9865L83.836 40.8162L83.767 40.6374L83.7066 40.4415L83.655 40.2457L83.6033 40.0413L83.5689 39.8284L83.5431 39.607L83.5259 39.3771L83.5167 39.1387H91.3574L90.4964 42.5699ZM100.439 38.508H96.2003L96.8982 35.7319H88.4026L87.7047 38.508H83.5948V37.9374L83.6465 37.699L83.6895 37.4605L83.7412 37.2051L83.7928 36.9496L83.8704 36.6686L83.948 36.3876L84.0342 36.1066L84.129 35.834L84.2324 35.5616L84.3444 35.2891L84.465 35.0251L84.5857 34.7611L84.7235 34.4971L84.8614 34.2502L85.0079 33.9947L85.1716 33.7562L85.3353 33.5178L85.499 33.2879L85.6799 33.0665L85.8695 32.8536L86.0676 32.6492L86.2658 32.4619L86.4812 32.2745L86.6966 32.0957L86.9206 31.9339L87.1619 31.7806L87.4032 31.6444L87.653 31.5166L87.9115 31.3974L88.1786 31.2952L88.4543 31.2101L88.7386 31.1419L89.0316 31.0823L89.3332 31.0397L89.6433 31.0141L89.9621 31.0061L90.212 31.0141L90.4619 31.0312L90.7118 31.0652L90.953 31.1163L91.0736 31.1504L91.1856 31.1844L91.2977 31.2185L91.401 31.2696L91.5044 31.3122L91.6078 31.3718L91.7026 31.4314L91.7974 31.491L91.8836 31.5676L91.9698 31.6443L92.0474 31.7209L92.125 31.8146L92.194 31.8997L92.2543 32.0019L92.306 32.1126L92.3577 32.2233L92.4007 32.3425L92.4351 32.4703L92.461 32.598L92.4868 32.7428L92.4959 32.8875V33.0408V33.2026L92.4787 33.3729H97.545L97.6226 33.0238L97.6915 32.6235L97.726 32.4107L97.7432 32.1807L97.7604 31.9508V31.7124L97.7523 31.4654L97.7265 31.21L97.7007 31.0907L97.6834 30.963L97.649 30.8353L97.6146 30.7075L97.5715 30.5713L97.5285 30.4436L97.4768 30.3158L97.4164 30.1881L97.3561 30.0603L97.2785 29.9326L97.2009 29.8049L97.1147 29.6771L97.0113 29.5409L96.8993 29.4132L96.7873 29.2854L96.6667 29.1662L96.5374 29.047L96.3996 28.9363L96.2617 28.8341L96.1152 28.7319L95.9602 28.6297L95.8051 28.5446L95.6414 28.4594L95.469 28.3743L95.2967 28.2976L95.1158 28.221L94.9262 28.1528L94.7367 28.0846L94.5471 28.025L94.3403 27.9739L94.1421 27.9228L93.9267 27.8717L93.7113 27.8291L93.4959 27.7864L93.2719 27.7524L93.0393 27.7269L92.5654 27.6758L92.0829 27.6331L91.5745 27.6161L91.0576 27.608L90.6698 27.6161L90.2649 27.6241L89.8427 27.6497L89.4033 27.6837L88.9466 27.7348L88.4813 27.7944L88.0075 27.8711L87.5249 27.9733L87.2837 28.0244L87.0338 28.084L86.7926 28.1521L86.5427 28.2203L86.2928 28.297L86.043 28.3821L85.7931 28.4673L85.5518 28.5609L85.302 28.6631L85.0521 28.7738L84.8109 28.8845L84.561 29.0037L84.3197 29.1314L84.0785 29.2677L83.8372 29.404L83.596 29.5572V14.4846H100.441V38.5072L100.439 38.508Z" fill="#003087"/>
</svg>
